<svg width="22" height="22" fill="none" xmlns="http://www.w3.org/2000/svg"><g clip-path="url(#clip0)"><path d="M15.811 22c-.71 0-1.414-.125-2.102-.376a22.424 22.424 0 01-8.143-5.19 22.422 22.422 0 01-5.19-8.142A6.085 6.085 0 01.066 5.3 6.229 6.229 0 013.271.733 6.126 6.126 0 016.205 0c.325 0 .605.226.673.543L7.957 5.58a.688.688 0 01-.186.63L5.927 8.053a18.097 18.097 0 008.02 8.02l1.844-1.844a.688.688 0 01.63-.186l5.035 1.08a.687.687 0 01.544.671c0 1.043-.247 2.03-.733 2.934a6.253 6.253 0 01-1.912 2.147 6.227 6.227 0 01-2.656 1.06 6.1 6.1 0 01-.888.065zM5.656 1.405a4.762 4.762 0 00-3.405 2.029 4.737 4.737 0 00-.583 4.388 20.852 20.852 0 0012.51 12.51 4.736 4.736 0 004.388-.583 4.762 4.762 0 002.029-3.405l-4.097-.878-1.925 1.926a.687.687 0 01-.779.136 19.466 19.466 0 01-9.322-9.322.687.687 0 01.136-.779l1.926-1.925-.878-4.097z" fill="#fff"/></g><defs><clipPath id="clip0"><path fill="#fff" d="M0 0h22v22H0z"/></clipPath></defs></svg>